<?xml version="1.0" encoding="UTF-8" standalone="no"?>
<!DOCTYPE svg PUBLIC "-//W3C//DTD SVG 1.1//EN" "http://www.w3.org/Graphics/SVG/1.1/DTD/svg11.dtd">
<svg width="100%" height="100%" viewBox="0 0 1640 348" version="1.1" xmlns="http://www.w3.org/2000/svg" xmlns:xlink="http://www.w3.org/1999/xlink" xml:space="preserve" xmlns:serif="http://www.serif.com/" style="fill-rule:evenodd;clip-rule:evenodd;stroke-linejoin:round;stroke-miterlimit:2;">
    <g id="Artboard1" transform="matrix(0.800559,0,0,0.169676,0,0)">
        <rect x="0" y="0" width="2048" height="2048" style="fill:none;"/>
        <g transform="matrix(1.23583,0,0,1.06303,-11.6342,-62.8051)">
            <g transform="matrix(0.169262,0,0,0.928424,14.421,73.218)">
                <path d="M2048,307.195L2048,1742.23C2048,1903.02 1917.46,2033.56 1756.67,2033.56L308.469,2033.56C147.679,2033.56 17.137,1903.02 17.137,1742.23L17.137,307.195C17.137,146.404 147.679,15.863 308.469,15.863L1756.67,15.863C1917.46,15.863 2048,146.404 2048,307.195Z" style="fill:rgb(34,0,87);"/>
                <path d="M2048,307.195L2048,1742.23C2048,1903.02 1917.46,2033.56 1756.67,2033.56L308.469,2033.56C147.679,2033.56 17.137,1903.02 17.137,1742.23L17.137,307.195C17.137,146.404 147.679,15.863 308.469,15.863L1756.67,15.863C1917.46,15.863 2048,146.404 2048,307.195ZM1985.5,307.195C1985.5,180.899 1882.96,78.363 1756.67,78.363L308.469,78.363C182.173,78.363 79.637,180.899 79.637,307.195L79.637,1742.23C79.637,1868.53 182.173,1971.06 308.469,1971.06L1756.67,1971.06C1882.96,1971.06 1985.5,1868.53 1985.5,1742.23L1985.5,307.195Z" style="fill:rgb(127,0,255);"/>
            </g>
            <g transform="matrix(0.169262,0,0,0.928424,18.5666,73.218)">
                <g transform="matrix(0.578226,0,0,0.877689,620.286,147.662)">
                    <g transform="matrix(1,0,0,1,-64.5153,393.442)">
                        <rect x="1524.65" y="360.711" width="468.267" height="440.694" style="fill:rgb(34,0,87);"/>
                        <path d="M1992.92,360.711L1992.92,801.405L1524.65,801.405L1524.65,360.711L1992.92,360.711ZM1946.08,391.569L1571.49,391.569L1571.49,770.548L1946.08,770.548L1946.08,391.569Z" style="fill:rgb(127,0,255);"/>
                    </g>
                    <g transform="matrix(1,0,0,1,-67.6028,-96.2669)">
                        <rect x="1524.65" y="360.711" width="468.267" height="440.694" style="fill:rgb(127,0,255);"/>
                        <path d="M1992.92,360.711L1992.92,801.405L1524.65,801.405L1524.65,360.711L1992.92,360.711ZM1946.08,391.569L1571.49,391.569L1571.49,770.548L1946.08,770.548L1946.08,391.569Z" style="fill:rgb(127,0,255);"/>
                    </g>
                    <g transform="matrix(1,0,0,0.287584,-67.6028,1146.13)">
                        <rect x="1524.65" y="360.711" width="468.267" height="440.694" style="fill:rgb(127,0,255);"/>
                        <path d="M1992.92,360.711L1992.92,801.405L1524.65,801.405L1524.65,360.711L1992.92,360.711ZM1946.08,468.011L1571.49,468.011L1571.49,694.106L1946.08,694.106L1946.08,468.011Z" style="fill:rgb(127,0,255);"/>
                    </g>
                    <g transform="matrix(1,0,0,0.287584,-67.6028,1503.63)">
                        <rect x="1524.65" y="360.711" width="468.267" height="440.694" style="fill:rgb(34,0,87);"/>
                        <path d="M1992.92,360.711L1992.92,801.405L1524.65,801.405L1524.65,360.711L1992.92,360.711ZM1946.08,468.011L1571.49,468.011L1571.49,694.106L1946.08,694.106L1946.08,468.011Z" style="fill:rgb(127,0,255);"/>
                    </g>
                    <g transform="matrix(1,0,0,0.287584,-67.6028,1324.88)">
                        <rect x="1524.65" y="360.711" width="468.267" height="440.694" style="fill:rgb(34,0,87);"/>
                        <path d="M1992.92,360.711L1992.92,801.405L1524.65,801.405L1524.65,360.711L1992.92,360.711ZM1946.08,468.011L1571.49,468.011L1571.49,694.106L1946.08,694.106L1946.08,468.011Z" style="fill:rgb(127,0,255);"/>
                    </g>
                </g>
                <g transform="matrix(29.5051,0,0,64.0648,-18942.8,-48287.1)">
                    <path d="M651.536,759.65L651.536,763.006L658.247,763.006L658.247,779.784L664.959,779.784L664.959,763.006L671.67,763.006L671.67,759.65L651.536,759.65Z" style="fill:rgb(168,132,224);fill-rule:nonzero;"/>
                    <path d="M679.724,769.717L688.215,769.706L688.215,766.35L679.724,766.361L679.724,763.006L690.476,763.006L690.476,759.65L676.368,759.65C674.14,759.65 673.021,760.764 673.013,762.992L673.013,779.784L679.724,779.784L679.724,769.717Z" style="fill:rgb(168,132,224);fill-rule:nonzero;"/>
                </g>
            </g>
        </g>
        <g transform="matrix(5.88062,0,0,27.7457,-2031.69,-1933.85)">
            <path d="M454.454,86.49C455.154,86.49 455.729,86.715 456.179,87.165C456.629,87.615 456.854,88.19 456.854,88.89C456.854,89.59 456.629,90.165 456.179,90.615C455.729,91.065 455.154,91.29 454.454,91.29L443.704,91.29L443.704,122.94C443.704,123.673 443.454,124.29 442.954,124.79C442.454,125.29 441.837,125.54 441.104,125.54C440.371,125.54 439.754,125.29 439.254,124.79C438.754,124.29 438.504,123.673 438.504,122.94L438.504,91.29L427.704,91.29C427.004,91.29 426.429,91.065 425.979,90.615C425.529,90.165 425.304,89.59 425.304,88.89C425.304,88.19 425.529,87.615 425.979,87.165C426.429,86.715 427.004,86.49 427.704,86.49L454.454,86.49Z" style="fill:white;fill-rule:nonzero;"/>
            <g transform="matrix(1,0,0,1,0.614448,0)">
                <path d="M470.704,97.94C473.004,97.94 475.071,98.44 476.904,99.44C478.737,100.44 480.171,101.898 481.204,103.815C482.237,105.731 482.754,108.04 482.754,110.74L482.754,123.04C482.754,123.773 482.512,124.381 482.029,124.865C481.546,125.348 480.937,125.59 480.204,125.59C479.471,125.59 478.862,125.348 478.379,124.865C477.896,124.381 477.654,123.773 477.654,123.04L477.654,110.74C477.654,108.04 476.929,105.998 475.479,104.615C474.029,103.231 472.104,102.54 469.704,102.54C468.304,102.54 467.029,102.823 465.879,103.39C464.729,103.956 463.829,104.723 463.179,105.69C462.529,106.656 462.204,107.74 462.204,108.94L462.204,123.04C462.204,123.773 461.971,124.381 461.504,124.865C461.037,125.348 460.421,125.59 459.654,125.59C458.921,125.59 458.312,125.348 457.829,124.865C457.346,124.381 457.104,123.773 457.104,123.04L457.104,89.04C457.104,88.273 457.346,87.656 457.829,87.19C458.312,86.723 458.921,86.49 459.654,86.49C460.421,86.49 461.037,86.723 461.504,87.19C461.971,87.656 462.204,88.273 462.204,89.04L462.204,101.29C463.271,100.223 464.537,99.398 466.004,98.815C467.471,98.231 469.037,97.94 470.704,97.94Z" style="fill:white;fill-rule:nonzero;"/>
            </g>
            <g transform="matrix(1,0,0,1,-1.2289,0)">
                <path d="M508.804,98.14C509.571,98.14 510.187,98.373 510.654,98.84C511.121,99.306 511.354,99.923 511.354,100.69L511.354,122.99C511.354,123.723 511.121,124.331 510.654,124.815C510.187,125.298 509.571,125.54 508.804,125.54C508.071,125.54 507.462,125.298 506.979,124.815C506.496,124.331 506.254,123.723 506.254,122.99L506.254,122.44C505.187,123.506 503.921,124.331 502.454,124.915C500.987,125.498 499.421,125.79 497.754,125.79C495.454,125.79 493.387,125.29 491.554,124.29C489.721,123.29 488.287,121.831 487.254,119.915C486.221,117.998 485.704,115.69 485.704,112.99L485.704,100.69C485.704,99.956 485.946,99.348 486.429,98.865C486.912,98.381 487.521,98.14 488.254,98.14C488.987,98.14 489.596,98.381 490.079,98.865C490.562,99.348 490.804,99.956 490.804,100.69L490.804,112.99C490.804,115.69 491.529,117.731 492.979,119.115C494.429,120.498 496.354,121.19 498.754,121.19C500.154,121.19 501.429,120.906 502.579,120.34C503.729,119.773 504.629,119.006 505.279,118.04C505.929,117.073 506.254,115.99 506.254,114.79L506.254,100.69C506.254,99.923 506.496,99.306 506.979,98.84C507.462,98.373 508.071,98.14 508.804,98.14Z" style="fill:white;fill-rule:nonzero;"/>
            </g>
            <g transform="matrix(1,0,0,1,-3.99391,0)">
                <path d="M544.104,97.94C547.004,97.94 549.346,98.89 551.129,100.79C552.912,102.69 553.804,105.34 553.804,108.74L553.804,123.04C553.804,123.773 553.571,124.381 553.104,124.865C552.637,125.348 552.021,125.59 551.254,125.59C550.521,125.59 549.912,125.348 549.429,124.865C548.946,124.381 548.704,123.773 548.704,123.04L548.704,108.74C548.704,106.706 548.196,105.165 547.179,104.115C546.162,103.065 544.804,102.54 543.104,102.54C541.371,102.54 539.946,103.14 538.829,104.34C537.712,105.54 537.154,107.073 537.154,108.94L537.154,123.04C537.154,123.773 536.921,124.381 536.454,124.865C535.987,125.348 535.371,125.59 534.604,125.59C533.871,125.59 533.262,125.348 532.779,124.865C532.296,124.381 532.054,123.773 532.054,123.04L532.054,108.74C532.054,106.706 531.546,105.165 530.529,104.115C529.512,103.065 528.154,102.54 526.454,102.54C524.687,102.54 523.246,103.14 522.129,104.34C521.012,105.54 520.454,107.073 520.454,108.94L520.454,123.04C520.454,123.773 520.221,124.381 519.754,124.865C519.287,125.348 518.671,125.59 517.904,125.59C517.171,125.59 516.562,125.348 516.079,124.865C515.596,124.381 515.354,123.773 515.354,123.04L515.354,100.79C515.354,100.023 515.596,99.406 516.079,98.94C516.562,98.473 517.171,98.24 517.904,98.24C518.637,98.24 519.237,98.465 519.704,98.915C520.171,99.365 520.421,99.956 520.454,100.69C521.321,99.823 522.354,99.148 523.554,98.665C524.754,98.181 526.054,97.94 527.454,97.94C529.154,97.94 530.679,98.281 532.029,98.965C533.379,99.648 534.487,100.623 535.354,101.89C536.354,100.656 537.604,99.69 539.104,98.99C540.604,98.29 542.271,97.94 544.104,97.94Z" style="fill:white;fill-rule:nonzero;"/>
            </g>
            <g transform="matrix(1,0,0,1,-6.4517,0)">
                <path d="M559.804,86.49C559.037,86.49 558.421,86.723 557.954,87.19C557.487,87.656 557.254,88.273 557.254,89.04L557.254,111.84C557.254,114.44 557.862,116.798 559.079,118.915C560.296,121.031 561.946,122.698 564.029,123.915C566.112,125.131 568.437,125.74 571.004,125.74C573.571,125.74 575.912,125.131 578.029,123.915C580.146,122.698 581.804,121.031 583.004,118.915C584.204,116.798 584.804,114.44 584.804,111.84C584.804,109.24 584.246,106.881 583.129,104.765C582.012,102.648 580.479,100.99 578.529,99.79C576.579,98.59 574.404,97.99 572.004,97.99C570.071,97.99 568.271,98.39 566.604,99.19C564.937,99.99 563.521,101.106 562.354,102.54L562.354,89.04C562.354,88.273 562.112,87.656 561.629,87.19C561.146,86.723 560.537,86.49 559.804,86.49ZM571.004,121.24C569.337,121.24 567.829,120.831 566.479,120.015C565.129,119.198 564.071,118.073 563.304,116.64C562.537,115.206 562.154,113.606 562.154,111.84C562.154,110.073 562.537,108.481 563.304,107.065C564.071,105.648 565.129,104.531 566.479,103.715C567.829,102.898 569.337,102.49 571.004,102.49C572.671,102.49 574.179,102.898 575.529,103.715C576.879,104.531 577.946,105.648 578.729,107.065C579.512,108.481 579.904,110.073 579.904,111.84C579.904,113.606 579.512,115.206 578.729,116.64C577.946,118.073 576.879,119.198 575.529,120.015C574.179,120.831 572.671,121.24 571.004,121.24Z" style="fill:white;fill-rule:nonzero;"/>
            </g>
            <g transform="matrix(1,0,0,1,-2.45779,0)">
                <path d="M604.404,104.49C604.837,104.49 605.196,104.631 605.479,104.915C605.762,105.198 605.904,105.556 605.904,105.99C605.904,106.423 605.762,106.79 605.479,107.09C605.196,107.39 604.837,107.54 604.404,107.54L587.854,107.54L587.854,124.04C587.854,124.473 587.712,124.831 587.429,125.115C587.146,125.398 586.787,125.54 586.354,125.54C585.921,125.54 585.562,125.398 585.279,125.115C584.996,124.831 584.854,124.473 584.854,124.04L584.854,89.45C584.854,89.017 584.772,87.803 585.624,87.045C586.329,86.418 587.991,86.49 588.424,86.49L610.404,86.49C610.804,86.49 611.154,86.631 611.454,86.915C611.754,87.198 611.904,87.556 611.904,87.99C611.904,88.39 611.754,88.74 611.454,89.04C611.154,89.34 610.804,89.49 610.404,89.49L587.854,89.49L587.854,104.49L604.404,104.49Z" style="fill:white;fill-rule:nonzero;"/>
            </g>
            <g transform="matrix(1,0,0,1,-10.4456,0)">
                <path d="M623.654,97.89C626.254,97.89 628.621,98.498 630.754,99.715C632.887,100.931 634.562,102.606 635.779,104.74C636.996,106.873 637.604,109.256 637.604,111.89C637.604,114.49 636.996,116.856 635.779,118.99C634.562,121.123 632.887,122.798 630.754,124.015C628.621,125.231 626.254,125.84 623.654,125.84C621.021,125.84 618.637,125.231 616.504,124.015C614.371,122.798 612.696,121.123 611.479,118.99C610.262,116.856 609.654,114.49 609.654,111.89C609.654,109.256 610.262,106.873 611.479,104.74C612.696,102.606 614.371,100.931 616.504,99.715C618.637,98.498 621.021,97.89 623.654,97.89ZM623.654,100.69C621.587,100.69 619.721,101.181 618.054,102.165C616.387,103.148 615.071,104.49 614.104,106.19C613.137,107.89 612.654,109.79 612.654,111.89C612.654,113.99 613.137,115.89 614.104,117.59C615.071,119.29 616.387,120.623 618.054,121.59C619.721,122.556 621.587,123.04 623.654,123.04C625.721,123.04 627.587,122.556 629.254,121.59C630.921,120.623 632.229,119.29 633.179,117.59C634.129,115.89 634.604,113.99 634.604,111.89C634.604,109.79 634.129,107.89 633.179,106.19C632.229,104.49 630.921,103.148 629.254,102.165C627.587,101.181 625.721,100.69 623.654,100.69Z" style="fill:white;fill-rule:nonzero;"/>
            </g>
            <g transform="matrix(1,0,0,1,-9.21672,0)">
                <path d="M649.204,97.89C651.737,97.89 653.004,98.44 653.004,99.54C653.004,99.706 652.987,99.84 652.954,99.94C652.854,100.306 652.696,100.565 652.479,100.715C652.262,100.865 651.971,100.94 651.604,100.94C651.304,100.94 650.912,100.906 650.429,100.84C649.946,100.773 649.537,100.74 649.204,100.74C647.537,100.74 646.054,101.09 644.754,101.79C643.454,102.49 642.437,103.456 641.704,104.69C640.971,105.923 640.604,107.306 640.604,108.84L640.604,124.04C640.604,124.473 640.471,124.831 640.204,125.115C639.937,125.398 639.571,125.54 639.104,125.54C638.671,125.54 638.312,125.398 638.029,125.115C637.746,124.831 637.604,124.473 637.604,124.04L637.604,99.69C637.604,99.223 637.746,98.856 638.029,98.59C638.312,98.323 638.671,98.19 639.104,98.19C639.571,98.19 639.937,98.323 640.204,98.59C640.471,98.856 640.604,99.223 640.604,99.69L640.604,102.79C641.571,101.256 642.804,100.056 644.304,99.19C645.804,98.323 647.437,97.89 649.204,97.89Z" style="fill:white;fill-rule:nonzero;"/>
            </g>
            <g transform="matrix(1,0,0,1,-8.9095,0)">
                <path d="M662.504,97.89C665.204,97.89 667.612,98.49 669.729,99.69C671.846,100.89 673.496,102.548 674.679,104.665C675.862,106.781 676.454,109.19 676.454,111.89L676.454,121.69C676.454,124.356 675.854,126.781 674.654,128.965C673.454,131.148 671.804,132.865 669.704,134.115C667.604,135.365 665.271,135.99 662.704,135.99C660.071,135.99 657.762,135.498 655.779,134.515C653.796,133.531 652.137,132.19 650.804,130.49C650.537,130.156 650.404,129.823 650.404,129.49C650.404,129.09 650.571,128.773 650.904,128.54C651.171,128.34 651.471,128.24 651.804,128.24C652.337,128.24 652.771,128.456 653.104,128.89C654.204,130.223 655.562,131.273 657.179,132.04C658.796,132.806 660.637,133.19 662.704,133.19C664.737,133.19 666.571,132.69 668.204,131.69C669.837,130.69 671.121,129.315 672.054,127.565C672.987,125.815 673.454,123.856 673.454,121.69L673.454,119.49C672.487,121.456 671.046,123.006 669.129,124.14C667.212,125.273 665.004,125.84 662.504,125.84C659.804,125.84 657.396,125.248 655.279,124.065C653.162,122.881 651.504,121.231 650.304,119.115C649.104,116.998 648.504,114.59 648.504,111.89C648.504,109.223 649.121,106.823 650.354,104.69C651.587,102.556 653.271,100.89 655.404,99.69C657.537,98.49 659.904,97.89 662.504,97.89ZM662.504,123.04C664.604,123.04 666.487,122.565 668.154,121.615C669.821,120.665 671.121,119.348 672.054,117.665C672.987,115.981 673.454,114.056 673.454,111.89C673.454,109.723 672.987,107.79 672.054,106.09C671.121,104.39 669.821,103.065 668.154,102.115C666.487,101.165 664.604,100.69 662.504,100.69C660.371,100.69 658.471,101.165 656.804,102.115C655.137,103.065 653.837,104.39 652.904,106.09C651.971,107.79 651.504,109.723 651.504,111.89C651.504,114.056 651.971,115.981 652.904,117.665C653.837,119.348 655.137,120.665 656.804,121.615C658.471,122.565 660.371,123.04 662.504,123.04Z" style="fill:white;fill-rule:nonzero;"/>
            </g>
            <g transform="matrix(1,0,0,1,-8.29505,0)">
                <path d="M687.804,97.94C690.237,97.94 692.412,98.515 694.329,99.665C696.246,100.815 697.737,102.406 698.804,104.44C699.871,106.473 700.404,108.79 700.404,111.39C700.404,111.823 700.271,112.165 700.004,112.415C699.737,112.665 699.387,112.79 698.954,112.79L678.004,112.79C678.104,114.756 678.621,116.515 679.554,118.065C680.487,119.615 681.737,120.823 683.304,121.69C684.871,122.556 686.621,122.99 688.554,122.99C689.854,122.99 691.162,122.765 692.479,122.315C693.796,121.865 694.837,121.273 695.604,120.54C695.937,120.273 696.287,120.14 696.654,120.14C697.021,120.14 697.321,120.24 697.554,120.44C697.921,120.74 698.104,121.09 698.104,121.49C698.104,121.823 697.954,122.14 697.654,122.44C696.587,123.406 695.196,124.206 693.479,124.84C691.762,125.473 690.121,125.79 688.554,125.79C685.921,125.79 683.579,125.198 681.529,124.015C679.479,122.831 677.871,121.181 676.704,119.065C675.537,116.948 674.954,114.556 674.954,111.89C674.954,109.19 675.496,106.781 676.579,104.665C677.662,102.548 679.179,100.898 681.129,99.715C683.079,98.531 685.304,97.94 687.804,97.94ZM687.804,100.74C685.204,100.74 683.012,101.606 681.229,103.34C679.446,105.073 678.387,107.356 678.054,110.19L697.504,110.19C697.271,107.356 696.271,105.073 694.504,103.34C692.737,101.606 690.504,100.74 687.804,100.74Z" style="fill:white;fill-rule:nonzero;"/>
            </g>
        </g>
    </g>
</svg>
