<?xml version="1.0" encoding="UTF-8" standalone="no"?>
<!DOCTYPE svg PUBLIC "-//W3C//DTD SVG 1.1//EN" "http://www.w3.org/Graphics/SVG/1.1/DTD/svg11.dtd">
<svg width="100%" height="100%" viewBox="0 0 2048 2048" version="1.1" xmlns="http://www.w3.org/2000/svg" xmlns:xlink="http://www.w3.org/1999/xlink" xml:space="preserve" xmlns:serif="http://www.serif.com/" style="fill-rule:evenodd;clip-rule:evenodd;stroke-linejoin:round;stroke-miterlimit:2;">
    <rect id="Artboard1" x="0" y="0" width="2048" height="2048" style="fill:none;"/>
    <g id="Artboard11" serif:id="Artboard1">
        <path d="M2048,307.195L2048,1742.23C2048,1903.02 1917.46,2033.56 1756.67,2033.56L308.469,2033.56C147.679,2033.56 17.137,1903.02 17.137,1742.23L17.137,307.195C17.137,146.404 147.679,15.863 308.469,15.863L1756.67,15.863C1917.46,15.863 2048,146.404 2048,307.195Z" style="fill:rgb(34,0,87);"/>
        <path d="M2048,307.195L2048,1742.23C2048,1903.02 1917.46,2033.56 1756.67,2033.56L308.469,2033.56C147.679,2033.56 17.137,1903.02 17.137,1742.23L17.137,307.195C17.137,146.404 147.679,15.863 308.469,15.863L1756.67,15.863C1917.46,15.863 2048,146.404 2048,307.195ZM1985.5,307.195C1985.5,180.899 1882.96,78.363 1756.67,78.363L308.469,78.363C182.173,78.363 79.637,180.899 79.637,307.195L79.637,1742.23C79.637,1868.53 182.173,1971.06 308.469,1971.06L1756.67,1971.06C1882.96,1971.06 1985.5,1868.53 1985.5,1742.23L1985.5,307.195Z" style="fill:rgb(127,0,255);"/>
        <g transform="matrix(1,0,0,1,24.4924,3.53793e-10)">
            <g transform="matrix(0.578226,0,0,0.877689,620.286,147.662)">
                <g transform="matrix(1,0,0,1,-64.5153,393.442)">
                    <rect x="1524.65" y="360.711" width="468.267" height="440.694" style="fill:rgb(34,0,87);"/>
                    <path d="M1992.92,360.711L1992.92,801.405L1524.65,801.405L1524.65,360.711L1992.92,360.711ZM1946.08,391.569L1571.49,391.569L1571.49,770.548L1946.08,770.548L1946.08,391.569Z" style="fill:rgb(127,0,255);"/>
                </g>
                <g transform="matrix(1,0,0,1,-67.6028,-96.2669)">
                    <rect x="1524.65" y="360.711" width="468.267" height="440.694" style="fill:rgb(127,0,255);"/>
                    <path d="M1992.92,360.711L1992.92,801.405L1524.65,801.405L1524.65,360.711L1992.92,360.711ZM1946.08,391.569L1571.49,391.569L1571.49,770.548L1946.08,770.548L1946.08,391.569Z" style="fill:rgb(127,0,255);"/>
                </g>
                <g transform="matrix(1,0,0,0.287584,-67.6028,1146.13)">
                    <rect x="1524.65" y="360.711" width="468.267" height="440.694" style="fill:rgb(127,0,255);"/>
                    <path d="M1992.92,360.711L1992.92,801.405L1524.65,801.405L1524.65,360.711L1992.92,360.711ZM1946.08,468.011L1571.49,468.011L1571.49,694.106L1946.08,694.106L1946.08,468.011Z" style="fill:rgb(127,0,255);"/>
                </g>
                <g transform="matrix(1,0,0,0.287584,-67.6028,1503.63)">
                    <rect x="1524.65" y="360.711" width="468.267" height="440.694" style="fill:rgb(34,0,87);"/>
                    <path d="M1992.92,360.711L1992.92,801.405L1524.65,801.405L1524.65,360.711L1992.92,360.711ZM1946.08,468.011L1571.49,468.011L1571.49,694.106L1946.08,694.106L1946.08,468.011Z" style="fill:rgb(127,0,255);"/>
                </g>
                <g transform="matrix(1,0,0,0.287584,-67.6028,1324.88)">
                    <rect x="1524.65" y="360.711" width="468.267" height="440.694" style="fill:rgb(34,0,87);"/>
                    <path d="M1992.92,360.711L1992.92,801.405L1524.65,801.405L1524.65,360.711L1992.92,360.711ZM1946.08,468.011L1571.49,468.011L1571.49,694.106L1946.08,694.106L1946.08,468.011Z" style="fill:rgb(127,0,255);"/>
                </g>
            </g>
            <g transform="matrix(29.5051,0,0,64.0648,-18942.8,-48287.1)">
                <path d="M651.536,759.65L651.536,763.006L658.247,763.006L658.247,779.784L664.959,779.784L664.959,763.006L671.67,763.006L671.67,759.65L651.536,759.65Z" style="fill:rgb(168,132,224);fill-rule:nonzero;"/>
                <path d="M679.724,769.717L688.215,769.706L688.215,766.35L679.724,766.361L679.724,763.006L690.476,763.006L690.476,759.65L676.368,759.65C674.14,759.65 673.021,760.764 673.013,762.992L673.013,779.784L679.724,779.784L679.724,769.717Z" style="fill:rgb(168,132,224);fill-rule:nonzero;"/>
            </g>
        </g>
    </g>
</svg>
