<?xml version="1.0" encoding="UTF-8" standalone="no"?>
<!DOCTYPE svg PUBLIC "-//W3C//DTD SVG 1.1//EN" "http://www.w3.org/Graphics/SVG/1.1/DTD/svg11.dtd">
<svg width="100%" height="100%" viewBox="0 0 2048 2048" version="1.1" xmlns="http://www.w3.org/2000/svg" xmlns:xlink="http://www.w3.org/1999/xlink" xml:space="preserve" xmlns:serif="http://www.serif.com/" style="fill-rule:evenodd;clip-rule:evenodd;stroke-linejoin:round;stroke-miterlimit:2;">
    <rect id="Artboard1" x="0" y="0" width="2048" height="2048" style="fill:none;"/>
    <g id="Artboard11" serif:id="Artboard1">
        <g id="Exclusion">
            <g transform="matrix(1.03748,-8.49197e-16,1.18757e-15,-11.1481,-243.091,5066.56)">
                <path d="M949.045,319.497L820.165,319.497C606.05,319.497 432.216,335.674 432.216,355.601L432.216,403.739C432.216,423.666 606.05,439.843 820.165,439.843L1411.92,439.843C1626.04,439.843 1799.87,423.666 1799.87,403.739L1799.87,382.942C1787.91,383.063 1775.77,383.125 1763.47,383.125L1281.98,383.125C1098.23,383.125 949.045,369.242 949.045,352.141L949.045,319.497Z" style="fill:rgb(130,62,255);"/>
            </g>
            <g transform="matrix(1.81661e-16,0.751271,8.82681,1.05276e-16,-2014.56,532.672)">
                <path d="M1799.87,354.418L1799.87,404.922C1799.87,424.195 1616.02,439.843 1389.57,439.843L842.512,439.843C616.063,439.843 432.216,424.195 432.216,404.922L432.216,354.418C432.216,335.144 616.063,319.497 842.512,319.497L1389.57,319.497C1616.02,319.497 1799.87,335.144 1799.87,354.418Z" style="fill:rgb(235,235,235);fill-opacity:0.5;"/>
            </g>
            <g transform="matrix(6.12323e-17,1,-1,6.12323e-17,2208.09,873.717)">
                <rect x="448.407" y="661.823" width="97.995" height="419.115" style="fill:white;"/>
            </g>
        </g>
    </g>
</svg>
