<?xml version="1.0" encoding="UTF-8" standalone="no"?>
<!DOCTYPE svg PUBLIC "-//W3C//DTD SVG 1.1//EN" "http://www.w3.org/Graphics/SVG/1.1/DTD/svg11.dtd">
<svg width="100%" height="100%" viewBox="0 0 2048 2048" version="1.1" xmlns="http://www.w3.org/2000/svg" xmlns:xlink="http://www.w3.org/1999/xlink" xml:space="preserve" xmlns:serif="http://www.serif.com/" style="fill-rule:evenodd;clip-rule:evenodd;stroke-linejoin:round;stroke-miterlimit:2;">
    <rect id="Artboard1" x="0" y="0" width="2048" height="2048" style="fill:none;"/>
    <g id="Artboard11" serif:id="Artboard1">
        <g id="FlipVertical" transform="matrix(6.12323e-17,1,-1,6.12323e-17,2052.96,-65.8943)">
            <g transform="matrix(7.84408e-17,1.28104,-1.23154,7.54101e-17,1557.47,-405.69)">
                <path d="M1799.87,355.601L1799.87,403.739C1799.87,423.666 1784.32,439.843 1765.16,439.843L466.925,439.843C447.768,439.843 432.216,423.666 432.216,403.739L432.216,355.601C432.216,335.674 447.768,319.497 466.925,319.497L1765.16,319.497C1784.32,319.497 1799.87,335.674 1799.87,355.601Z" style="fill:rgb(130,62,255);"/>
            </g>
            <g transform="matrix(-5.65308e-17,-1.07038,-1.32134,8.78237e-17,2494.73,2252.59)">
                <path d="M777.477,408.219L1933.77,915.899L361.834,915.899L777.477,408.219Z" style="fill:rgb(235,235,235);fill-opacity:0.5;"/>
            </g>
            <g transform="matrix(5.65308e-17,-1.07038,1.32134,8.78237e-17,-314.941,2252.59)">
                <path d="M777.477,408.219L1933.77,915.899L361.834,915.899L777.477,408.219Z" style="fill:rgb(130,62,255);fill-opacity:0.54;"/>
            </g>
        </g>
    </g>
</svg>
