<?xml version="1.0" encoding="UTF-8" standalone="no"?>
<!DOCTYPE svg PUBLIC "-//W3C//DTD SVG 1.1//EN" "http://www.w3.org/Graphics/SVG/1.1/DTD/svg11.dtd">
<svg width="100%" height="100%" viewBox="0 0 2048 2048" version="1.1" xmlns="http://www.w3.org/2000/svg" xmlns:xlink="http://www.w3.org/1999/xlink" xml:space="preserve" xmlns:serif="http://www.serif.com/" style="fill-rule:evenodd;clip-rule:evenodd;stroke-linejoin:round;stroke-miterlimit:2;">
    <rect id="Artboard1" x="0" y="0" width="2048" height="2048" style="fill:none;"/>
    <g id="Artboard11" serif:id="Artboard1">
        <g id="Intersection">
            <g transform="matrix(1.1698,-9.446e-16,6.09813e-16,-13.2915,-481.245,5751.35)">
                <path d="M1799.87,365.478L1799.87,355.601C1799.87,335.674 1626.04,319.497 1411.92,319.497L1116.04,319.497L1116.04,341.757C1116.04,355.087 1232.33,365.909 1375.56,365.909L1750.88,365.909C1767.63,365.909 1784.01,365.761 1799.87,365.478Z" style="fill:rgb(130,62,255);"/>
            </g>
            <g transform="matrix(1.03748,-8.49197e-16,1.18757e-15,-11.1481,-243.091,5066.56)">
                <path d="M1799.87,355.601C1799.87,335.674 1626.04,319.497 1411.92,319.497L820.165,319.497C606.05,319.497 432.216,335.674 432.216,355.601L432.216,403.739C432.216,423.666 606.05,439.843 820.165,439.843L1411.92,439.843C1626.04,439.843 1799.87,423.666 1799.87,403.739L1799.87,355.601ZM1729.88,358.064L1729.88,401.276C1729.88,419.162 1573.84,433.684 1381.64,433.684L850.449,433.684C658.249,433.684 502.208,419.162 502.208,401.276L502.208,358.064C502.208,340.177 658.249,325.656 850.449,325.656L1381.64,325.656C1573.84,325.656 1729.88,340.177 1729.88,358.064Z" style="fill:rgb(186,186,186);"/>
            </g>
            <g transform="matrix(1.81661e-16,0.751271,8.82681,1.05276e-16,-2014.56,536.053)">
                <path d="M1799.87,354.418C1799.87,335.144 1616.02,319.497 1389.57,319.497L842.512,319.497C616.063,319.497 432.216,335.144 432.216,354.418L432.216,404.922C432.216,424.195 616.063,439.843 842.512,439.843L1389.57,439.843C1616.02,439.843 1799.87,424.195 1799.87,404.922L1799.87,354.418ZM1713.74,357.599L1713.74,401.741C1713.74,418.587 1553.04,432.264 1355.12,432.264L876.966,432.264C679.04,432.264 518.35,418.587 518.35,401.741L518.35,357.599C518.35,340.753 679.04,327.076 876.966,327.076L1355.12,327.076C1553.04,327.076 1713.74,340.753 1713.74,357.599Z" style="fill:rgb(186,186,186);"/>
            </g>
        </g>
    </g>
</svg>
