<?xml version="1.0" encoding="UTF-8" standalone="no"?>
<!DOCTYPE svg PUBLIC "-//W3C//DTD SVG 1.1//EN" "http://www.w3.org/Graphics/SVG/1.1/DTD/svg11.dtd">
<svg width="100%" height="100%" viewBox="0 0 2048 2048" version="1.1" xmlns="http://www.w3.org/2000/svg" xmlns:xlink="http://www.w3.org/1999/xlink" xml:space="preserve" xmlns:serif="http://www.serif.com/" style="fill-rule:evenodd;clip-rule:evenodd;stroke-linejoin:round;stroke-miterlimit:2;">
    <rect id="Artboard1" x="0" y="0" width="2048" height="2048" style="fill:none;"/>
    <g id="Artboard11" serif:id="Artboard1">
        <g id="SendtoBack" transform="matrix(1,0,0,1,19,0)">
            <g transform="matrix(0.918022,-7.51415e-16,1.05083e-15,-9.86446,-0.55161,4769.24)">
                <path d="M1799.87,355.601L1799.87,403.739C1799.87,423.666 1626.04,439.843 1411.92,439.843L820.165,439.843C606.05,439.843 432.216,423.666 432.216,403.739L432.216,355.601C432.216,335.674 606.05,319.497 820.165,319.497L1411.92,319.497C1626.04,319.497 1799.87,335.674 1799.87,355.601Z" style="fill:rgb(130,62,255);"/>
            </g>
            <g transform="matrix(1.47926e-16,0.611759,7.18766,8.57258e-17,-1293.6,783.775)">
                <path d="M1799.87,354.418L1799.87,404.922C1799.87,424.195 1616.02,439.843 1389.57,439.843L842.512,439.843C616.063,439.843 432.216,424.195 432.216,404.922L432.216,354.418C432.216,335.144 616.063,319.497 842.512,319.497L1389.57,319.497C1616.02,319.497 1799.87,335.144 1799.87,354.418Z" style="fill:rgb(235,235,235);fill-opacity:0.65;"/>
            </g>
            <g transform="matrix(1.47926e-16,0.611759,7.18766,8.57258e-17,-2149.08,-123.712)">
                <path d="M1799.87,354.418L1799.87,404.922C1799.87,424.195 1616.02,439.843 1389.57,439.843L842.512,439.843C616.063,439.843 432.216,424.195 432.216,404.922L432.216,354.418C432.216,335.144 616.063,319.497 842.512,319.497L1389.57,319.497C1616.02,319.497 1799.87,335.144 1799.87,354.418Z" style="fill:rgb(235,235,235);fill-opacity:0.65;"/>
            </g>
        </g>
    </g>
</svg>
